<svg width="20" height="20" viewBox="0 0 20 20" fill="none" xmlns="http://www.w3.org/2000/svg">
<path d="M1.66669 4.16667C1.66669 3.72464 1.84228 3.30072 2.15484 2.98816C2.4674 2.67559 2.89133 2.5 3.33335 2.5H16.6667C17.1087 2.5 17.5326 2.67559 17.8452 2.98816C18.1578 3.30072 18.3334 3.72464 18.3334 4.16667V13.3333C18.3334 13.7754 18.1578 14.1993 17.8452 14.5118C17.5326 14.8244 17.1087 15 16.6667 15H10.8334V16.6667H13.3334C13.5544 16.6667 13.7663 16.7545 13.9226 16.9107C14.0789 17.067 14.1667 17.279 14.1667 17.5C14.1667 17.721 14.0789 17.933 13.9226 18.0893C13.7663 18.2455 13.5544 18.3333 13.3334 18.3333H6.66669C6.44567 18.3333 6.23371 18.2455 6.07743 18.0893C5.92115 17.933 5.83335 17.721 5.83335 17.5C5.83335 17.279 5.92115 17.067 6.07743 16.9107C6.23371 16.7545 6.44567 16.6667 6.66669 16.6667H9.16669V15H3.33335C2.89133 15 2.4674 14.8244 2.15484 14.5118C1.84228 14.1993 1.66669 13.7754 1.66669 13.3333V4.16667ZM16.6667 13.3333V4.16667H3.33335V13.3333H16.6667Z" fill="#F8F8F8"/>
</svg>
